<?xml version="1.0" encoding="utf-8"?>
<!-- Generator: Adobe Illustrator 23.0.3, SVG Export Plug-In . SVG Version: 6.00 Build 0)  -->
<svg version="1.1" id="Layer_1" xmlns="http://www.w3.org/2000/svg" xmlns:xlink="http://www.w3.org/1999/xlink" x="0px" y="0px"
	 viewBox="0 0 512 512" style="enable-background:new 0 0 512 512;" xml:space="preserve">
<style type="text/css">
	.st0{fill:#442D05;}
	.st1{fill:#EDE9E8;}
	.st2{fill:#FFBC4F;}
	.st3{fill:#332303;}
</style>
<path class="st0" d="M256.5,70c-33.1,0-60,26.9-60,60c0,13.1,4.2,25.1,11.2,35v0l48.8,29.1l48.8-29.1v0c7.1-9.8,11.2-21.9,11.2-35
	C316.5,96.9,289.6,70,256.5,70z"/>
<path class="st1" d="M434.2,241.7c50.8,50.8,55.6,99.9,28.3,127.3c-35.9,35.9-91.1,7.9-127.3-28.3c-35.4-35.4-78.3-102.4-78.7-145.4
	c0-0.4,0-0.8,0-1.2c0.1-9.7,2.6-17.6,8-23.1c8.5-8.5,23.1-9.8,40.8-6C344.6,173.3,399.1,206.7,434.2,241.7z"/>
<path class="st2" d="M342,347.3L342,347.3c-0.2,0.9-0.4,1.8-0.5,2.8h-170c-0.2-0.9-0.4-1.8-0.5-2.7l0,0c2.3-2.1,4.5-4.3,6.8-6.5
	c14.4-14.4,28.5-32.1,40.8-50.7h75.9c12.2,18.6,26.4,36.3,40.8,50.7C337.5,343,339.7,345.2,342,347.3z"/>
<path class="st0" d="M171.5,350h170c-4.4,22.2-11.5,45.4-20.6,66H192C182.9,395.4,175.9,372.2,171.5,350z"/>
<path class="st2" d="M192,416h128.9c-16.3,37.1-39.2,66-64.4,66C231.2,482,208.4,453.1,192,416z"/>
<path class="st0" d="M294.4,290h-75.9c21.9-33.3,37.7-69.5,37.9-94.7C256.7,220.5,272.5,256.7,294.4,290z"/>
<path class="st1" d="M256.5,194.1c0,0.4,0,0.8,0,1.2c-0.4,44.2-44.6,111.3-78.7,145.4c-36.2,36.2-91.4,64.2-127.3,28.3
	C23.1,341.7,28,292.5,78.8,241.7c35-35,89.6-68.4,128.9-76.8c17.7-3.7,32.3-2.4,40.8,6C253.9,176.4,256.4,184.4,256.5,194.1z"/>
<path d="M426.5,300c5.5,0,10-4.5,10-10s-4.5-10-10-10c-5.5,0-10,4.5-10,10S420.9,300,426.5,300z"/>
<path d="M86.5,300c5.5,0,10-4.5,10-10s-4.5-10-10-10c-5.5,0-10,4.5-10,10S80.9,300,86.5,300z"/>
<path class="st3" d="M25.5,312.3c-4.7,24.9,1.7,47.5,17.9,63.8c13,13,29.5,19.4,47.7,19.4c22.8,0,48.5-10.1,73.6-29.8
	c10.6,43.8,38,114.9,81.8,125.1V502c0,5.5,4.5,10,10,10c5.5,0,10-4.5,10-10v-11.2c43.8-10.3,71.3-81.5,81.8-125.1
	c25.2,19.7,50.8,29.8,73.6,29.8c18.2,0,34.6-6.4,47.7-19.4c16.2-16.2,22.6-38.9,17.9-63.8c-4.8-25.3-20.7-52.2-46.2-77.6
	c-33.7-33.7-82.3-64-120.9-76c4-8.9,6.1-18.6,6.1-28.6c0-29.9-18.8-55.4-45.2-65.5C291.6,37.9,317.2,20,346.5,20c5.5,0,10-4.5,10-10
	s-4.5-10-10-10c-38.7,0-72.4,24.3-84.9,60.2c-1.7-0.1-3.4-0.2-5.1-0.2c-1.7,0-3.4,0.1-5.1,0.2C238.9,24.3,205.2,0,166.5,0
	c-5.5,0-10,4.5-10,10s4.5,10,10,10c29.3,0,54.9,17.9,65.2,44.5c-26.4,10-45.2,35.6-45.2,65.5c0,10,2.1,19.7,6.1,28.6
	C134.8,176.7,38.7,241.8,25.5,312.3z M256.5,239.5c5,12.8,11.7,26.5,19.9,40.5h-39.9C244.8,265.9,251.5,252.3,256.5,239.5z
	 M223.9,300h65.2c9.9,14.5,20.6,28.1,31.6,40H192.3C203.2,328.1,214,314.5,223.9,300z M314.3,406H198.6c-5.9-14.3-11-30.2-14.8-46
	H329C325.3,375.8,320.2,391.7,314.3,406z M256.5,472c-15.7,0-33.3-16.9-48.6-46H305C289.8,455.1,272.2,472,256.5,472z M467.8,316
	c3.5,18.5-0.8,34.4-12.4,45.9c-10.7,10.7-25.3,15.2-42.2,13c-44.3-5.9-85.7-52.9-110.4-90.4c-22.5-34.3-36.1-67.6-36.3-89.3
	c0,0,0,0,0,0c0-0.3,0-0.6,0-0.9c0,0,0,0,0,0c0.1-7.4,1.8-12.8,5.1-16.1c3.4-3.4,9.1-5.1,16.6-5.1c4.4,0,9.4,0.6,15,1.8c0,0,0,0,0,0
	c36.1,7.6,89.3,39.4,123.9,74C449.7,271.4,463.8,294.6,467.8,316z M256.5,80c27.6,0,50,22.4,50,50c0,8.5-2.1,16.6-6.1,24
	c-19.1-2.8-33.5,0.5-43,10c-0.3,0.3-0.6,0.7-0.9,1c-0.3-0.3-0.6-0.7-0.9-1c-9.5-9.5-23.9-12.8-43-10c-4-7.3-6.1-15.5-6.1-24
	C206.5,102.4,228.9,80,256.5,80z M209.8,174.8c5.5-1.2,10.6-1.8,15-1.8c7.6,0,13.3,1.7,16.6,5.1c3.3,3.3,5,8.7,5.1,16.1v0.1
	c0,0.3,0,0.6,0,0.9v0c-0.2,21.7-13.8,55-36.3,89.3c-24.6,37.4-66,84.5-110.4,90.4c-16.9,2.3-31.5-2.2-42.2-13
	C46,350.3,41.7,334.5,45.2,316C57.2,251.8,157.5,185.8,209.8,174.8z"/>
<path d="M121.9,269.6c22.8-20.8,53-40,78.7-50.3c5.1-2.1,7.6-7.9,5.6-13c-2.1-5.1-7.9-7.6-13-5.6c-27.8,11.1-60.3,31.9-84.8,54.1
	c-4.1,3.7-4.4,10-0.7,14.1C111.5,273,117.9,273.3,121.9,269.6z"/>
<path d="M311.7,219.3c25.9,10.1,56.3,29.4,79.3,50.3c4.1,3.7,10.4,3.4,14.1-0.7c3.7-4.1,3.4-10.4-0.7-14.1
	c-24.7-22.5-57.5-43.2-85.5-54.1c-5.1-2-10.9,0.5-13,5.7S306.6,217.3,311.7,219.3z"/>
</svg>
