<?xml version="1.0" encoding="utf-8"?>
<!-- Generator: Adobe Illustrator 23.0.3, SVG Export Plug-In . SVG Version: 6.00 Build 0)  -->
<svg version="1.1" id="Bold" xmlns="http://www.w3.org/2000/svg" xmlns:xlink="http://www.w3.org/1999/xlink" x="0px" y="0px"
	 viewBox="0 0 473.1 546" style="enable-background:new 0 0 473.1 546;" xml:space="preserve">
<style type="text/css">
	.st0{fill:#FFBC42;}
</style>
<g>
	<path class="st0" d="M449.8,123L256.3,11.4L236.5,0l-19.8,11.4L23.3,123L0,136.5v29.4v192.7v21.5v29.3v0.1L23.3,423l193.5,111.6
		l19.8,11.4l19.8-11.4L449.8,423l23.3-13.4v-29.4V187.5V166v-29.3v-0.1L449.8,123z M241.3,521.9l-4.8,2.8l-4.8-2.8L173.1,488
		L22.3,401l-4.8-2.8v-5.5V151v-5.5l4.8-2.8l151.4-87.4l58.1-33.5l4.8-2.8l4.8,2.8l58.8,33.9l150.7,87l4.8,2.8v5.5v241.7v5.5
		l-4.8,2.8l-151.6,87.5L241.3,521.9z"/>
	<path class="st0" d="M299.3,477.4L446,392.8V151.1L300,66.9l-63.5-36.7l-62.7,36.2L27.1,151v241.7L173,477
		c-0.1-7.8-0.2-18.5-0.2-30.9c-71.2,15.2-86.2-33.7-86.2-33.7c-11.6-29-28.5-36.8-28.5-36.8c-23.2-15.6,1.8-15.3,1.8-15.3
		c18.6,1.3,30.8,14.2,36.1,21.3c2,2.7,3.1,4.6,3.1,4.6c19.1,32.3,48.3,29.6,65.9,24.2c3.4-1.1,6.3-2.2,8.7-3.2
		c0.1-0.6,0.2-1.1,0.3-1.6c2.5-15.4,8.9-25.9,16-32c-51.1-5.7-104.5-23.7-114.8-97.2c-1.2-8.3-1.8-17.3-1.8-27.1
		c0-27.5,9.9-49.9,26.3-67.5c-2.9-6.4-11.5-31.9,2.2-66.6c0,0,21.4-6.7,70.4,25.8c0.8-0.2,1.6-0.4,2.4-0.6
		c19.8-5.2,40.7-7.7,61.6-7.9c13.6,0.1,27.1,1.2,40.3,3.4c7.7,1.3,15.3,2.9,22.7,4.9c0.3,0.1,0.7,0.2,1,0.3c2.7-1.8,5.4-3.5,8-5.1
		c7.7-4.8,14.7-8.5,20.9-11.4c28.4-13.3,41.2-9.2,41.2-9.2c5.7,14.2,7.5,26.9,7.6,37.4c0,4.4-0.3,8.4-0.7,12
		c-1.1,8.5-3.2,14.5-4.3,17.2c4.9,5.3,9.2,11,12.9,17.2c8.5,14.4,13.4,31.1,13.4,50.3c0,7.3-0.3,14.2-1,20.7
		c-8,79.1-63.1,97.7-115.8,103.4c7.1,5.9,13.7,16.8,16.2,32.6c0.7,4.3,1.1,8.9,1.1,13.9C299.6,443.9,299.4,464.6,299.3,477.4z"/>
</g>
</svg>
