<?xml version="1.0" encoding="utf-8"?>
<!-- Generator: Adobe Illustrator 23.0.3, SVG Export Plug-In . SVG Version: 6.00 Build 0)  -->
<svg version="1.1" id="Layer_1" xmlns="http://www.w3.org/2000/svg" xmlns:xlink="http://www.w3.org/1999/xlink" x="0px" y="0px"
	 viewBox="0 0 572.1 587.2" style="enable-background:new 0 0 572.1 587.2;" xml:space="preserve">
<style type="text/css">
	.st0{fill:#4D4D4D;}
	.st1{fill:#F7B239;}
	.st2{fill:#E09B2D;}
	.st3{fill:#FFFFFF;}
	.st4{fill:#333333;}
	.st5{fill:#FFF3E6;}
	.st6{fill:#666666;}
	.st7{fill:#F0C419;}
	.st8{fill:none;stroke:#333333;stroke-width:22;stroke-linecap:round;stroke-miterlimit:10;}
</style>
<path class="st0" d="M354.7,310.4c6.9,10.1,10.9,22.3,10.9,35.4c0,13.1-4,25.3-10.9,35.4h0c-11.3,16.5-30.3,27.4-51.8,27.4
	c-21.5,0-40.5-10.8-51.8-27.4c-6.9-10.1-10.9-22.3-10.9-35.4c0-13.1,4-25.3,10.9-35.4c11.3-16.5,30.3-27.4,51.8-27.4
	C324.4,283,343.4,293.8,354.7,310.4L354.7,310.4z"/>
<g>
	<path class="st1" d="M377.7,452c19.3,0.2,35,16,35,35.4c0,9.8-4,18.6-10.4,25c-6.4,6.4-15.3,10.4-25,10.4H228.4
		c-19.5,0-35.4-15.8-35.4-35.4c0-9.8,4-18.6,10.4-25c6.3-6.3,15-10.2,24.6-10.4H377.7z"/>
	<path class="st1" d="M459.8,416.6c0,9.8-4,18.6-10.4,25c-6.4,6.4-15.3,10.4-25,10.4h-46.6c-0.2,0-0.3,0-0.5,0H228.4
		c-0.2,0-0.3,0-0.5,0h-46.6c-19.6,0-35.4-15.9-35.4-35.4c0-9.8,4-18.6,10.4-25c6.4-6.4,15.3-10.4,25-10.4H251
		c11.3,16.5,30.3,27.4,51.8,27.4c21.5,0,40.5-10.8,51.8-27.4h0h69.7C443.9,381.2,459.8,397,459.8,416.6z"/>
	<path class="st1" d="M181.3,310.4H251c-6.9,10.1-10.9,22.3-10.9,35.4c0,13.1,4,25.3,10.9,35.4h-69.7h-30.4
		c-19.6,0-35.4-15.9-35.4-35.4c0-9.8,4-18.6,10.4-25c6.4-6.4,15.3-10.4,25-10.4H181.3z"/>
	<path class="st1" d="M490.2,345.8c0,9.8-4,18.6-10.4,25c-6.4,6.4-15.3,10.4-25,10.4h-30.4h-69.7c6.9-10.1,10.9-22.3,10.9-35.4
		c0-13.1-4-25.3-10.9-35.4h69.7h30.4C474.3,310.4,490.2,326.2,490.2,345.8z"/>
	<path class="st1" d="M459.8,275c0,9.8-4,18.6-10.4,25c-6.4,6.4-15.3,10.4-25,10.4h-69.7h0c-11.3-16.5-30.3-27.4-51.8-27.4
		c-21.5,0-40.5,10.8-51.8,27.4h-69.7c-19.6,0-35.4-15.8-35.4-35.4c0-9.8,4-18.6,10.4-25c6.4-6.4,15.3-10.4,25-10.4h243.1
		C443.9,239.6,459.8,255.4,459.8,275z"/>
	<path class="st1" d="M377.3,168.8c19.6,0,35.4,15.9,35.4,35.4c0,9.8-4,18.6-10.4,25c-6.4,6.4-15.3,10.4-25,10.4H228.4
		c-19.5,0-35.4-15.9-35.4-35.4c0-9.8,4-18.6,10.4-25c6.4-6.4,15.3-10.4,25-10.4L377.3,168.8L377.3,168.8z"/>
</g>
<g>
	<path class="st2" d="M235.7,204.2c0-9.8,4-18.6,10.4-25c6.4-6.4,15.3-10.4,25-10.4h-42.7c-9.8,0-18.6,4-25,10.4
		c-6.4,6.4-10.4,15.3-10.4,25c0,19.6,15.9,35.4,35.4,35.4h42.7C251.5,239.6,235.7,223.7,235.7,204.2z"/>
	<path class="st2" d="M188.6,275c0-9.8,4-18.6,10.4-25s15.3-10.4,25-10.4h-42.7c-9.8,0-18.6,4-25,10.4c-6.4,6.4-10.4,15.3-10.4,25
		c0,19.6,15.9,35.4,35.4,35.4H224C204.4,310.4,188.6,294.5,188.6,275z"/>
	<path class="st2" d="M158.2,345.8c0-9.8,4-18.6,10.4-25c6.4-6.4,15.3-10.4,25-10.4h-42.7c-9.8,0-18.6,4-25,10.4
		c-6.4,6.4-10.4,15.3-10.4,25c0,19.6,15.9,35.4,35.4,35.4h42.7C174.1,381.2,158.2,365.3,158.2,345.8z"/>
	<path class="st2" d="M188.6,416.6c0-9.8,4-18.6,10.4-25c6.4-6.4,15.3-10.4,25-10.4h-42.7c-9.8,0-18.6,4-25,10.4
		c-6.4,6.4-10.4,15.3-10.4,25c0,19.6,15.9,35.4,35.4,35.4H224C204.4,452,188.6,436.1,188.6,416.6z"/>
	<path class="st2" d="M235.7,487.4c0-9.8,4-18.6,10.4-25c6.4-6.4,15.3-10.4,25-10.4h-42.7c-9.8,0-18.6,4-25,10.4
		c-6.4,6.4-10.4,15.3-10.4,25c0,19.6,15.9,35.4,35.4,35.4h42.7C251.5,522.8,235.7,506.9,235.7,487.4z"/>
</g>
<g>
	<circle class="st3" cx="381.3" cy="202.9" r="9.7"/>
	<circle class="st3" cx="425.9" cy="274.4" r="9.7"/>
	<circle class="st3" cx="458.9" cy="345.9" r="9.7"/>
	<circle class="st3" cx="425.9" cy="417.4" r="9.7"/>
</g>
<g>
	<circle class="st2" cx="500" cy="522.8" r="9.7"/>
	<circle class="st2" cx="490.3" cy="179.2" r="9.7"/>
	<circle class="st2" cx="84.6" cy="218.1" r="9.7"/>
	<circle class="st2" cx="73" cy="373.3" r="9.7"/>
</g>
<path class="st4" d="M499.9,345.8c0-22.7-16.9-41.5-38.7-44.6c5.4-7.6,8.4-16.6,8.4-26.2c0-24.9-20.2-45.1-45.1-45.1h-10.1
	c5.1-7.3,8.1-16.2,8.1-25.7c0-24.9-20.2-45.1-45.1-45.1h-64.8v-30.9c38.5,3,74.1,4.1,105.1,4.1c8.3,0,16.3-0.1,23.9-0.2
	c5.4-0.1,9.6-4.5,9.5-9.9c-0.1-5.4-4.5-9.6-9.9-9.5c-16.7,0.3-32.9,0.3-48.6,0l14.8-18.4c3.4-4.2,2.7-10.3-1.5-13.6
	c-4.2-3.4-10.3-2.7-13.6,1.5L368.1,112c-19.3-0.7-37.9-1.8-55.6-3.2v-7.2c0-5.4-4.3-9.7-9.7-9.7c-5.4,0-9.7,4.3-9.7,9.7v5.5
	c-69.7-6.7-125.6-18.2-165.7-28.6c-5.1-1.3-9.9-2.6-14.7-4l45.6-13.6c5.1-1.5,8.1-6.9,6.5-12.1c-1.5-5.1-6.9-8.1-12.1-6.5L79.1,64.2
	c-39.5-13-60.3-23.6-60.6-23.7C13.7,38.1,7.9,40,5.4,44.7S4.8,55.3,9.6,57.8C11.2,58.6,49.2,78,121.8,97c10.2,2.7,20.4,5.1,30.6,7.4
	l22.3,31c1.9,2.6,4.9,4,7.9,4c2,0,4-0.6,5.7-1.8c4.3-3.1,5.3-9.2,2.2-13.5l-9.8-13.7c38.8,7.6,76.7,12.8,112.6,16.1v32.5h-64.8
	c-24.9,0-45.1,20.2-45.1,45.1c0,9.5,3,18.4,8.1,25.7h-10c-12.1,0-23.4,4.7-31.9,13.2c-8.5,8.5-13.2,19.8-13.2,31.9
	c0,9.7,3.1,18.8,8.4,26.1c-9.6,1.3-18.5,5.8-25.6,12.8c-8.5,8.5-13.2,19.9-13.2,31.9c0,22.7,16.9,41.5,38.7,44.7
	c-5.4,7.6-8.4,16.6-8.4,26.2c0,24.9,20.2,45.1,45.1,45.1h10c-5.1,7.3-8.1,16.1-8.1,25.7c0,24.9,20.2,45.1,45.1,45.1h148.9
	c24.9,0,45.1-20.2,45.1-45.1c0-9.5-3-18.4-8.1-25.7h10.1c12,0,23.4-4.7,31.9-13.2c8.5-8.5,13.2-19.8,13.2-31.9
	c0-9.7-3.1-18.8-8.4-26.1c9.6-1.3,18.5-5.8,25.5-12.8C495.2,369.2,499.9,357.8,499.9,345.8z M228.4,178.5h148.9
	c14.2,0,25.7,11.5,25.7,25.7c0,14.2-11.5,25.7-25.7,25.7H228.4c-14.2,0-25.7-11.5-25.7-25.7S214.2,178.5,228.4,178.5z M163.1,256.8
	c4.9-4.9,11.3-7.5,18.2-7.5h243.1c14.2,0,25.7,11.5,25.7,25.7c0,6.9-2.7,13.3-7.5,18.2c-4.9,4.9-11.3,7.5-18.2,7.5h-64.9
	c-13.3-16.7-33.7-27.4-56.7-27.4c-22.9,0-43.4,10.7-56.7,27.4h-64.9c-14.2,0-25.7-11.5-25.7-25.7
	C155.6,268.1,158.3,261.7,163.1,256.8z M302.8,398.8c-29.3,0-53.1-23.8-53.1-53.1c0-29.3,23.8-53.1,53.1-53.1
	c29.3,0,53.1,23.8,53.1,53.1C355.9,375,332.1,398.8,302.8,398.8z M125.2,345.8c0-6.9,2.7-13.3,7.5-18.2c4.9-4.9,11.3-7.5,18.2-7.5
	h84.2c-3,8-4.7,16.7-4.7,25.7c0,9,1.7,17.7,4.7,25.7h-84.2C136.7,371.5,125.2,359.9,125.2,345.8z M403,487.4
	c0,14.2-11.5,25.7-25.7,25.7H228.4c-14.2,0-25.7-11.5-25.7-25.7c0-14.2,11.5-25.7,25.7-25.7h149C391.5,461.7,403,473.2,403,487.4z
	 M442.6,434.7c-4.9,4.9-11.3,7.5-18.2,7.5H181.3c-14.2,0-25.7-11.5-25.7-25.7c0-6.9,2.7-13.3,7.5-18.2c4.9-4.9,11.3-7.5,18.2-7.5
	h64.9c13.3,16.7,33.7,27.4,56.7,27.4c22.9,0,43.4-10.7,56.7-27.4h64.9c14.2,0,25.7,11.5,25.7,25.7
	C450.1,423.4,447.4,429.9,442.6,434.7z M472.9,364c-4.9,4.9-11.3,7.5-18.2,7.5h-84.2c3-8,4.7-16.6,4.7-25.7c0-9-1.7-17.7-4.7-25.7
	h84.2c14.2,0,25.7,11.5,25.7,25.7C480.5,352.6,477.8,359.1,472.9,364z"/>
<g>
	<path class="st5" d="M537.1,242.8c17.7-5.3,31.8,0.7,31.7,13.5c-0.1,10-9,21.1-21.3,28.1c-2.6,1.5-5.3,2.7-8.2,3.8
		c-0.9,0.3-1.9,0.6-2.8,0.9c-10.9,3.3-20.5,2.2-26.2-2c-3.5-2.7-5.6-6.6-5.5-11.4c0-0.9,0.1-1.8,0.2-2.8
		C507.1,260.7,520.7,247.7,537.1,242.8z"/>
	<path class="st6" d="M539.3,288.1l0.1,0.1l-20,26.5l0,0c-0.2,2.9-0.7,5.9-1.3,8.7l0,0c3.1,1.3,6.3,2.2,9.4,2.7l0.2-0.3l24.7-32.9
		l0.3-0.3c-1.3-2.8-3.1-5.6-5.2-8.3C544.8,285.8,542.1,287,539.3,288.1z"/>
	<g>
		<path class="st7" d="M552.3,292.9l0.3-0.3c4.4,9.2,4.4,18.8-0.7,25.7c-5.2,6.9-14.4,9.4-24.5,7.8l0.2-0.3L552.3,292.9L552.3,292.9
			z"/>
		<path class="st7" d="M539.3,288.1l0.1,0.1l-20,26.5c0.1-1.1,0.1-2.1,0.1-3.2c0.1-11.4-3.5-20.3-9.2-24.6c5.7,4.3,15.3,5.3,26.2,2
			C537.4,288.7,538.4,288.4,539.3,288.1z"/>
		<path class="st7" d="M470.3,266.7c0.5-2.6,1.5-5.1,3.2-7.4c5.8-7.7,16.7-9.2,24.4-3.4c5.4,4.1,7.7,10.6,6.7,16.8
			c-0.4,2.7-1.5,5.3-3.3,7.6c-1.7,2.3-3.9,4.1-6.4,5.2c-5.7,2.7-12.7,2.3-18-1.8C471.6,279.6,469.2,273,470.3,266.7z"/>
	</g>
	<path class="st5" d="M497.8,284.8c4.7-1.4,9-0.5,12.5,2.1c5.7,4.3,9.3,13.2,9.2,24.6c0,1.1-0.1,2.1-0.1,3.2l0,0
		c-0.2,2.9-0.7,5.9-1.3,8.7c-3.3,13.7-11.5,25.3-21.1,28.2c-12.2,3.7-21.9-8.3-21.7-26.7c0.2-17.1,8.9-33.8,20-39
		C496,285.4,496.9,285.1,497.8,284.8z"/>
	<path d="M504.2,282.3c-2,2.7-4.6,4.8-7.6,6.3c-7.1,3.4-15.3,2.6-21.6-2.1c-6.3-4.8-9.4-12.6-8-20.4l0,0c0.6-3.2,1.9-6.2,3.9-8.9
		c6.9-9.2,20-11,29.2-4.1c6.2,4.7,9.3,12.4,8,20.1C507.5,276.5,506.2,279.7,504.2,282.3z M476.3,261.4c-1.3,1.8-2.2,3.8-2.6,6
		c0,0,0,0,0,0c-0.9,5.3,1.1,10.5,5.4,13.7c4.2,3.2,9.8,3.7,14.5,1.4c2-1,3.8-2.4,5.1-4.2c1.4-1.8,2.3-3.9,2.6-6.1
		c0.9-5.2-1.2-10.4-5.4-13.5C489.8,253.9,480.9,255.2,476.3,261.4z"/>
	<path d="M554.6,320.3c-5.7,7.6-16.1,11-27.7,9.1c-3.4-0.5-6.8-1.5-10.1-2.9c-1.7-0.7-2.6-2.7-1.9-4.4c0.7-1.7,2.7-2.6,4.4-1.9
		c2.9,1.2,5.8,2,8.6,2.5c9.2,1.5,17-0.9,21.2-6.5c4.2-5.5,4.3-13.8,0.4-22.2c-1.2-2.6-2.8-5.2-4.8-7.6c-1.2-1.5-0.9-3.6,0.6-4.8
		c1.5-1.2,3.6-0.9,4.8,0.6c2.2,2.8,4.1,5.8,5.6,8.9C560.7,301.8,560.3,312.7,554.6,320.3z"/>
	<path d="M565.6,273.2c-4,5.3-9.7,10.2-16.5,14.1c-2.8,1.6-5.7,2.9-8.7,4c-1,0.4-2,0.7-3,1c-11.5,3.5-22.4,2.5-29.2-2.6
		c-4.5-3.4-6.9-8.4-6.9-14.2c0-1.1,0.1-2.2,0.3-3.3c1.1-6.6,5.2-13.6,11.6-19.6c6.3-5.9,14.4-10.6,22.8-13.1
		c1.8-0.5,3.7,0.5,4.2,2.3c0.5,1.8-0.5,3.7-2.3,4.2c-14.8,4.5-27.8,16.4-29.6,27.3c-0.1,0.8-0.2,1.5-0.2,2.3c0,3.7,1.3,6.6,4.1,8.7
		c5,3.8,13.7,4.4,23.1,1.5c0.9-0.3,1.7-0.6,2.6-0.9c2.6-1,5.2-2.1,7.7-3.5c11.6-6.5,19.5-16.6,19.6-25.1c0.1-6.5-4.3-9.4-8-10.7
		c-1.8-0.6-2.7-2.6-2.1-4.4c0.6-1.8,2.6-2.7,4.4-2.1c8.1,2.9,12.7,9.2,12.6,17.2C572.1,261.9,569.7,267.8,565.6,273.2z"/>
	<path d="M550.4,242.9c-0.6,0.8-1.5,1.3-2.6,1.4c-0.5,0-0.9,0.1-1.4,0.1c-1.9,0.2-3.5-1.2-3.7-3.1c-0.2-1.9,1.2-3.5,3.1-3.7
		c0.6-0.1,1.2-0.1,1.7-0.1c1.9-0.1,3.5,1.4,3.6,3.2C551.1,241.5,550.9,242.3,550.4,242.9z"/>
	<path d="M512.4,343.9c-4.1,5.5-9.1,9.3-14.5,11c-5.5,1.7-11.1,0.7-15.5-2.7c-6.8-5.1-10.7-15.3-10.6-27.3
		c0.1-8.8,2.4-17.8,6.3-25.5c4-7.8,9.6-13.7,15.6-16.6c1-0.5,2.1-0.9,3.1-1.2c5.5-1.7,11.1-0.7,15.5,2.7
		c6.8,5.1,10.7,15.3,10.6,27.3c0,1.1-0.1,2.3-0.1,3.4c0,0,0,0.1,0,0.1c-0.2,3-0.7,6.1-1.4,9.1C519.5,331.8,516.4,338.6,512.4,343.9z
		 M487.9,296.5c-5.5,7.2-9.1,17.9-9.3,28.4c-0.1,9.9,2.8,18,7.8,21.8c2.8,2.1,6,2.6,9.5,1.6c8.1-2.5,15.7-12.8,18.7-25.7
		c0.6-2.7,1.1-5.4,1.3-8.1c0,0,0-0.1,0-0.1c0.1-0.9,0.1-1.9,0.1-2.9c0.1-9.9-2.8-18-7.8-21.8c-2.8-2.1-6-2.6-9.5-1.6
		c-0.7,0.2-1.4,0.5-2.1,0.8C493.5,290.4,490.5,293.1,487.9,296.5z"/>
	<path d="M473,268.8c-1,1.3-2.6,1.7-4.1,1.1l-24.2-9.4c-1.8-0.7-2.6-2.7-1.9-4.4c0.7-1.8,2.7-2.6,4.4-1.9l24.3,9.4
		c0.3,0.1,0.6,0.3,0.8,0.5C473.9,265.1,474.2,267.3,473,268.8z"/>
	<path d="M482.7,256c-0.2,0.2-0.4,0.5-0.7,0.7c-1.5,1.1-3.6,0.8-4.8-0.7l-15.8-20.8c-1.1-1.5-0.8-3.6,0.7-4.8
		c1.5-1.1,3.6-0.8,4.8,0.7l15.8,20.8C483.6,253.1,483.6,254.8,482.7,256z"/>
	<path d="M555.1,294.9l-24.7,32.9c-1.1,1.5-3.3,1.8-4.8,0.7c-1.5-1.1-1.8-3.3-0.7-4.8l24.7-32.9c1.1-1.5,3.3-1.8,4.8-0.7
		C555.9,291.3,556.2,293.4,555.1,294.9z"/>
	<path d="M542,290.3l-20,26.5c-1.1,1.5-3.3,1.8-4.8,0.7c-1.5-1.1-1.8-3.3-0.7-4.8l20-26.5c1.1-1.5,3.3-1.8,4.8-0.7
		C542.9,286.6,543.2,288.8,542,290.3z"/>
</g>
<g>
	<path class="st5" d="M152,292.3c-2.5,18.3-13.8,28.7-25.4,23.3c-9-4.2-15.5-16.9-16.7-31c-0.3-3-0.3-6,0-9c0.1-1,0.2-2,0.3-2.9
		c1.5-11.3,6.4-19.6,12.7-23c3.9-2.1,8.3-2.4,12.7-0.3c0.8,0.4,1.6,0.9,2.4,1.4C148.1,257.5,154.3,275.3,152,292.3z"/>
	<path class="st6" d="M109.8,275.5l-0.1,0l-15.9-29.1l0,0c-2.6-1.4-5.1-3-7.3-4.8l0,0c-2.5,2.3-4.6,4.8-6.3,7.4l0.2,0.3l19.7,36.1
		l0.2,0.4c3.1,0,6.4-0.5,9.7-1.3C109.6,281.6,109.6,278.6,109.8,275.5z"/>
	<g>
		<path class="st7" d="M100,285.5l0.2,0.4c-10.2,0.2-19-3.7-23.1-11.3c-4.1-7.5-2.6-17,3-25.5l0.2,0.3L100,285.5L100,285.5z"/>
		<path class="st7" d="M109.8,275.5l-0.1,0l-15.9-29.1c0.9,0.5,1.9,1,2.8,1.4c10.3,4.8,19.9,5.2,26.2,1.8
			c-6.3,3.4-11.2,11.7-12.7,23C110,273.6,109.9,274.6,109.8,275.5z"/>
		<path class="st7" d="M157.8,221.6c2.2,1.5,4,3.5,5.4,6c4.6,8.5,1.5,19.1-7,23.7c-5.9,3.2-12.9,2.7-18.1-0.8
			c-2.3-1.5-4.2-3.6-5.6-6.1c-1.4-2.5-2.1-5.3-2.1-8c-0.1-6.3,3.2-12.5,9.1-15.7C145.5,217.4,152.5,218,157.8,221.6z"/>
	</g>
	<path class="st5" d="M129.9,239.1c-0.7,4.8-3.2,8.4-7.1,10.5c-6.3,3.4-15.9,3.1-26.2-1.8c-1-0.5-1.9-0.9-2.8-1.4l0,0
		c-2.6-1.4-5.1-3-7.3-4.8c-11.2-8.6-18.3-21-17-30.9c1.7-12.7,16.6-16.6,33.3-8.7c15.5,7.3,27.1,22.1,27.3,34.3
		C130.1,237.3,130,238.2,129.9,239.1z"/>
	<path d="M129.5,245.9c-1.6-2.9-2.5-6.2-2.5-9.5c-0.2-7.8,4-15,10.9-18.8c6.9-3.8,15.3-3.3,21.8,1.1l0,0c2.7,1.8,4.9,4.3,6.5,7.2
		c5.5,10.1,1.8,22.8-8.3,28.3c-6.9,3.7-15.1,3.4-21.6-1C133.5,251.4,131.1,248.9,129.5,245.9z M160.2,229.2c-1.1-2-2.5-3.6-4.3-4.8
		c0,0,0,0,0,0c-4.4-3-10-3.3-14.7-0.8c-4.6,2.5-7.4,7.4-7.3,12.6c0,2.3,0.6,4.4,1.7,6.4c1.1,2,2.6,3.7,4.5,4.9
		c4.4,2.9,9.9,3.2,14.6,0.7C161.4,244.6,163.9,236,160.2,229.2z"/>
	<path d="M74.1,276.2c-4.6-8.3-3.4-19.2,3.2-29c1.9-2.8,4.2-5.5,6.8-8c1.4-1.3,3.5-1.2,4.8,0.1c1.3,1.4,1.2,3.5-0.1,4.8
		c-2.3,2.1-4.2,4.4-5.8,6.8c-5.2,7.8-6.2,15.8-2.9,22c3.3,6.1,10.8,9.6,20,9.5c2.9,0,5.9-0.4,8.9-1.2c1.8-0.5,3.7,0.7,4.1,2.5
		c0.5,1.8-0.7,3.7-2.5,4.1c-3.5,0.9-7,1.3-10.4,1.4C88.4,289.4,78.7,284.5,74.1,276.2z"/>
	<path d="M112.5,305.7c-3.2-5.8-5.3-13-6-20.9c-0.3-3.2-0.3-6.4,0-9.5c0.1-1,0.2-2.1,0.3-3.1c1.6-11.9,7-21.5,14.4-25.5
		c4.9-2.7,10.5-2.8,15.8-0.4c1,0.5,1.9,1,2.9,1.6c5.6,3.7,10.2,10.4,13,18.7c2.8,8.2,3.7,17.5,2.5,26.1c-0.3,1.9-2,3.2-3.8,2.9
		c-1.9-0.3-3.2-2-2.9-3.8c2.1-15.3-3.5-32.1-12.6-38.3c-0.6-0.4-1.3-0.8-2-1.1c-3.3-1.6-6.5-1.5-9.6,0.2c-5.5,3-9.6,10.7-10.9,20.4
		c-0.1,0.9-0.2,1.8-0.3,2.7c-0.2,2.8-0.2,5.6,0,8.4c1.1,13.3,7.1,24.6,14.8,28.2c5.9,2.7,10.3,0,13.1-2.9c1.3-1.4,3.5-1.4,4.8-0.1
		c1.4,1.3,1.4,3.5,0.1,4.8c-6,6.2-13.6,7.7-20.9,4.3C120.1,316.2,115.7,311.7,112.5,305.7z"/>
	<path d="M146.3,304.4c-0.5-0.9-0.6-1.9-0.2-2.9c0.2-0.4,0.3-0.9,0.5-1.3c0.6-1.8,2.6-2.7,4.3-2.1c1.8,0.6,2.7,2.6,2.1,4.3
		c-0.2,0.5-0.4,1.1-0.6,1.6c-0.7,1.7-2.7,2.6-4.4,1.9C147.3,305.6,146.7,305,146.3,304.4z"/>
	<path d="M70.1,228c-3.3-6-4.7-12.2-4-17.7c0.8-5.7,3.9-10.4,8.9-13.1c7.4-4.1,18.4-3.4,29.3,1.7c7.9,3.7,15.2,9.5,20.6,16.3
		c5.5,6.9,8.5,14.4,8.7,21.1c0,1.1,0,2.2-0.2,3.3c-0.8,5.7-3.9,10.4-8.9,13.1c-7.4,4.1-18.4,3.4-29.3-1.7c-1-0.5-2-1-3-1.5
		c0,0-0.1,0-0.1-0.1c-2.7-1.5-5.3-3.2-7.7-5.1C78.2,239.5,73.3,233.8,70.1,228z M123.4,225.3c-4.3-8-12.5-15.7-22-20.2
		c-8.9-4.2-17.6-4.9-23.1-1.9c-3.1,1.7-4.9,4.4-5.4,8c-1.1,8.4,5.2,19.6,15.7,27.7c2.2,1.7,4.5,3.2,6.9,4.5c0,0,0.1,0,0.1,0.1
		c0.8,0.5,1.7,0.9,2.6,1.3c8.9,4.2,17.6,4.9,23.1,1.9c3.1-1.7,4.9-4.4,5.4-8c0.1-0.7,0.1-1.5,0.1-2.3
		C126.6,232.9,125.4,229.1,123.4,225.3z"/>
	<path d="M154.8,223.2c-0.8-1.4-0.4-3.1,0.7-4.1l18.6-18.2c1.3-1.3,3.5-1.3,4.8,0.1c1.3,1.3,1.3,3.5-0.1,4.8L160.2,224
		c-0.2,0.2-0.5,0.4-0.8,0.6C157.7,225.5,155.7,224.9,154.8,223.2z"/>
	<path d="M162.4,237.3c-0.1-0.3-0.3-0.6-0.3-0.9c-0.4-1.8,0.7-3.7,2.6-4.1l25.4-5.8c1.8-0.4,3.7,0.7,4.1,2.6
		c0.4,1.8-0.7,3.7-2.6,4.1l-25.4,5.8C164.6,239.3,163.1,238.6,162.4,237.3z"/>
	<path d="M97,287.1L77.3,251c-0.9-1.7-0.3-3.7,1.4-4.6c1.7-0.9,3.7-0.3,4.6,1.4l19.7,36.1c0.9,1.7,0.3,3.7-1.4,4.6
		C100,289.4,97.9,288.7,97,287.1z"/>
	<path d="M106.7,277.2L90.8,248c-0.9-1.7-0.3-3.7,1.4-4.6c1.7-0.9,3.7-0.3,4.6,1.4l15.9,29.1c0.9,1.7,0.3,3.7-1.4,4.6
		C109.6,279.4,107.6,278.8,106.7,277.2z"/>
</g>
<g>
	<path class="st5" d="M261.1,491.6c-2.9-18.2,5-31.4,17.6-29.6c9.9,1.5,19.7,11.8,25,24.9c1.1,2.8,2,5.6,2.6,8.6
		c0.2,1,0.4,1.9,0.5,2.9c1.8,11.2-0.5,20.6-5.5,25.7c-3.1,3.1-7.2,4.6-12.1,3.9c-0.9-0.1-1.8-0.3-2.7-0.6
		C274.9,523.7,263.8,508.5,261.1,491.6z"/>
	<path class="st6" d="M306.3,495.5l0.1,0l23.6,23.3l0,0c2.9,0.6,5.7,1.5,8.4,2.5l0,0c1.7-2.9,3-5.9,3.9-8.9l-0.3-0.2l-29.2-28.9
		l-0.3-0.3c-3,0.9-6,2.3-8.9,4C304.8,489.6,305.7,492.5,306.3,495.5z"/>
	<g>
		<path class="st7" d="M312.9,483.1l-0.3-0.3c9.7-3.1,19.3-1.9,25.4,4.2c6.1,6,7.4,15.6,4.4,25.3l-0.3-0.2L312.9,483.1L312.9,483.1z
			"/>
		<path class="st7" d="M306.3,495.5l0.1,0l23.6,23.3c-1-0.2-2.1-0.4-3.1-0.6c-11.3-1.7-20.6,0.7-25.6,5.8c5-5.1,7.3-14.4,5.5-25.7
			C306.7,497.4,306.6,496.4,306.3,495.5z"/>
		<path class="st7" d="M275.9,560.9c-2.5-0.8-4.9-2.2-6.9-4.2c-6.8-6.8-6.9-17.8-0.1-24.7c4.7-4.8,11.6-6.3,17.6-4.4
			c2.6,0.8,5,2.2,7.1,4.3c2.1,2,3.5,4.5,4.3,7c1.9,6,0.5,12.9-4.2,17.6C288.9,561.4,282,562.9,275.9,560.9z"/>
	</g>
	<path class="st5" d="M297.6,536.1c-0.8-4.8,0.7-9,3.8-12.1c5-5.1,14.3-7.5,25.6-5.8c1,0.2,2.1,0.3,3.1,0.6l0,0
		c2.9,0.6,5.7,1.5,8.4,2.5c13.2,5.1,23.5,14.8,25.1,24.7c2,12.6-11.1,20.6-29.4,17.9c-16.9-2.5-32.3-13.4-36-25
		C297.9,537.9,297.7,537,297.6,536.1z"/>
	<path d="M296,529.5c2.4,2.3,4.2,5.3,5.2,8.4c2.4,7.4,0.5,15.5-5,21.1c-5.6,5.6-13.7,7.6-21.2,5.2l0,0c-3.1-1-5.9-2.7-8.3-5
		c-8.2-8.1-8.2-21.3-0.2-29.5c5.5-5.5,13.5-7.6,21-5.2C290.6,525.4,293.6,527.1,296,529.5z M271.4,554.3c1.6,1.6,3.5,2.7,5.5,3.4
		c0,0,0,0,0,0c5.1,1.6,10.6,0.3,14.3-3.5c3.7-3.7,5-9.2,3.4-14.2c-0.7-2.1-1.9-4-3.5-5.7c-1.6-1.6-3.5-2.8-5.7-3.4
		c-5-1.6-10.4-0.2-14.1,3.5C265.9,539.9,265.9,548.8,271.4,554.3z"/>
	<path d="M340.4,484.6c6.8,6.7,8.7,17.4,5.3,28.7c-1,3.3-2.4,6.5-4.2,9.6c-0.9,1.6-3,2.2-4.7,1.3c-1.6-0.9-2.2-3-1.3-4.7
		c1.6-2.7,2.8-5.5,3.6-8.2c2.7-9,1.4-16.9-3.6-21.9c-4.9-4.9-13.1-6.1-21.9-3.3c-2.8,0.9-5.5,2.1-8.2,3.7c-1.6,1-3.7,0.4-4.7-1.2
		c-1-1.6-0.4-3.7,1.2-4.7c3.1-1.8,6.3-3.3,9.6-4.3C322.8,476,333.6,477.9,340.4,484.6z"/>
	<path d="M295.2,467.4c4.7,4.7,8.8,11,11.7,18.3c1.2,3,2.1,6,2.8,9.1c0.2,1,0.4,2.1,0.6,3.1c1.9,11.9-0.5,22.6-6.5,28.6
		c-4,4-9.3,5.7-15,4.9c-1.1-0.2-2.1-0.4-3.2-0.7c-6.4-2-12.7-7-17.9-14.2c-5-7-8.6-15.7-9.9-24.3c-0.3-1.9,1-3.6,2.8-3.9
		c1.9-0.3,3.6,1,3.9,2.8c2.4,15.3,12.6,29.8,23,33c0.7,0.2,1.5,0.4,2.2,0.5c3.6,0.5,6.7-0.5,9.2-2.9c4.4-4.5,6.2-13,4.6-22.7
		c-0.1-0.9-0.3-1.8-0.5-2.7c-0.6-2.7-1.4-5.4-2.5-8.1c-4.9-12.4-13.9-21.5-22.3-22.8c-6.4-1-9.9,3-11.7,6.5
		c-0.9,1.7-2.9,2.3-4.6,1.5c-1.7-0.9-2.3-2.9-1.5-4.6c3.9-7.6,10.8-11.3,18.8-10.1C284.8,459.4,290.3,462.6,295.2,467.4z"/>
	<path d="M263.1,478.4c0.7,0.7,1.1,1.7,1,2.7c0,0.5-0.1,0.9-0.1,1.4c-0.1,1.9-1.7,3.3-3.6,3.2c-1.9-0.1-3.3-1.7-3.2-3.6
		c0-0.6,0.1-1.2,0.1-1.7c0.2-1.9,1.8-3.3,3.7-3.1C261.8,477.5,262.5,477.8,263.1,478.4z"/>
	<path d="M358.1,529.6c4.9,4.8,8,10.3,8.9,15.8c0.9,5.7-0.8,11-4.7,15c-6,6-16.6,8.6-28.5,6.8c-8.7-1.3-17.3-4.7-24.4-9.7
		c-7.2-5-12.3-11.3-14.3-17.7c-0.3-1.1-0.6-2.2-0.8-3.2c-0.9-5.7,0.8-11.1,4.7-15.1c6-6,16.6-8.6,28.5-6.8c1.1,0.2,2.2,0.4,3.3,0.6
		c0,0,0.1,0,0.1,0c3,0.6,6,1.5,8.8,2.6C347,520.9,353.3,524.9,358.1,529.6z M307.8,547.5c6.4,6.4,16.5,11.5,26.9,13
		c9.8,1.5,18.2-0.4,22.7-4.8c2.5-2.5,3.4-5.6,2.8-9.2c-1.3-8.4-10.6-17.3-23-22c-2.6-1-5.2-1.8-7.9-2.3c0,0-0.1,0-0.1,0
		c-0.9-0.2-1.9-0.4-2.8-0.5c-9.8-1.5-18.2,0.4-22.7,4.8c-2.5,2.5-3.4,5.6-2.8,9.2c0.1,0.7,0.3,1.5,0.5,2.2
		C302.5,541.2,304.8,544.5,307.8,547.5z"/>
	<path d="M278.3,558.5c1.1,1.1,1.3,2.8,0.5,4.2l-12.6,22.7c-0.9,1.6-3,2.2-4.6,1.3c-1.6-0.9-2.2-3-1.3-4.6l12.6-22.8
		c0.2-0.3,0.3-0.5,0.6-0.7C274.8,557.2,277,557.2,278.3,558.5z"/>
	<path d="M267,547.2c0.2,0.2,0.4,0.5,0.6,0.7c0.9,1.6,0.4,3.7-1.3,4.6l-22.7,12.9c-1.6,0.9-3.7,0.4-4.6-1.3
		c-0.9-1.6-0.4-3.7,1.3-4.6l22.7-12.9C264.2,545.9,265.9,546.2,267,547.2z"/>
	<path d="M315.3,480.7l29.2,28.9c1.3,1.3,1.3,3.5,0,4.8c-1.3,1.3-3.5,1.3-4.8,0l-29.2-28.9c-1.3-1.3-1.3-3.5,0-4.8
		C311.8,479.4,313.9,479.4,315.3,480.7z"/>
	<path d="M308.9,493l23.6,23.3c1.3,1.3,1.4,3.5,0,4.8c-1.3,1.3-3.5,1.4-4.8,0l-23.6-23.3c-1.3-1.3-1.3-3.5,0-4.8
		C305.4,491.7,307.6,491.7,308.9,493z"/>
</g>
<line class="st8" x1="11" y1="48.4" x2="74.9" y2="137.9"/>
<line class="st8" x1="11" y1="48.4" x2="108.1" y2="11"/>
</svg>
